<svg xmlns="http://www.w3.org/2000/svg" xmlns:xlink="http://www.w3.org/1999/xlink" width="100%" height="100%" viewBox="0 0 1280 850" preserveAspectRatio="xMinYMin meet" ><rect id="svgEditorBackground" x="0" y="0" width="1280" height="850" style="fill: none; stroke: none;"/><path d="M-228.104,499.483c69.583,0.945,571.765,1.653,602.104,-0.068c2.085,-20.97,2.159,-35.309,3.85,-43.635c14.53,0.67,88.253,3.867,105.225,4.497c-0.992,-16.056,5.215,-46.017,7.685,-64.146c-30.264,-0.167,-232.791,-1.516,-276.493,-0.002c1.852,-87.696,11.253,-427.602,11.556,-467.659c32.384,-0.905,728.524,-7.303,756.979,-5.146c2.14,38.742,-10.582,391.336,-12.831,445.853c-33.701,-0.038,-443.334,19.143,-459.311,19.248c1.342,-12.091,4.814,-25.734,1.283,-30.156c-67.714,0.723,-213.366,1.999,-260.454,3.851c2.985,-37.3,7.154,-360.196,7.06,-404.139c31.998,4.194,669.348,4.383,688.33,3.839c-0.273,22.562,-2.483,343.967,-5.13,374.64c-62.98,1.78,-286.987,7.773,-323.32,10.26c-2.957,14.04,-20.81,83.75,-23.726,113.553c14.414,-1.004,41.327,-1.029,59.011,-1.283c-2.203,10.014,-5.095,23.103,-11.555,38.492c26.924,1.269,301.501,-8.646,327.159,-7.058c-0.006,-42.057,0.676,-70.139,2.568,-83.401c16.654,-1.057,30.152,-3.565,50.668,-1.286c1.272,-71.532,7.881,-396.917,11.556,-464.456c33.841,-9.774,47.065,-7.274,64.79,-10.26c-7.949,43.216,-13.165,441.958,-9.628,533.088c49.107,-1.294,96.783,-4.894,139.234,-7.7c-1.846,-44.525,-24.19,-504.005,-26.311,-529.234c-6.614,0.434,-59.402,-11.268,-83.396,1.286c-6.664,15.754,0.519,525.233,0,546.56c36.066,1.421,528.396,-7.319,631.24,-7.7" style="stroke:black;fill:none;stroke-width:5.36px" id="e4_curve3"/></svg>